{
  "accessors": [
    {
      "bufferView": 2,
      "componentType": 5126,
      "count": 1551,
      "max": [
        -0.26102501153945923,
        6.891386032104492,
        4.313265800476074
      ],
      "min": [
        -12.6111478805542,
        -6.890275001525879,
        0.03272299841046333
      ],
      "type": "VEC3"
    },
    {
      "bufferView": 2,
      "byteOffset": 18612,
      "componentType": 5126,
      "count": 1551,
      "max": [
        0.9945849776268005,
        0.9811761379241943,
        0.8646931052207947
      ],
      "min": [
        -0.9988223910331726,
        -0.9806835055351257,
        -0.9949503540992737
      ],
      "type": "VEC3"
    },
    {
      "bufferView": 1,
      "componentType": 5126,
      "count": 1551,
      "max": [
        0.9826880097389221,
        0.22587500512599945
      ],
      "min": [
        0.8007940053939819,
        0.036642998456954956
      ],
      "type": "VEC2"
    },
    {
      "bufferView": 0,
      "componentType": 5125,
      "count": 8400,
      "type": "SCALAR"
    },
    {
      "bufferView": 2,
      "byteOffset": 37224,
      "componentType": 5126,
      "count": 9661,
      "max": [
        -0.2572149932384491,
        6.968911170959473,
        4.452836990356445
      ],
      "min": [
        -12.615898132324219,
        -6.967806816101074,
        0.0
      ],
      "type": "VEC3"
    },
    {
      "bufferView": 2,
      "byteOffset": 153156,
      "componentType": 5126,
      "count": 9661,
      "max": [
        1.0,
        0.9999278783798218,
        0.9999988675117493
      ],
      "min": [
        -0.9990997910499573,
        -0.9999292492866516,
        -0.9999985098838806
      ],
      "type": "VEC3"
    },
    {
      "bufferView": 1,
      "byteOffset": 12408,
      "componentType": 5126,
      "count": 9661,
      "max": [
        0.7893589735031128,
        0.5079110264778137
      ],
      "min": [
        0.015452999621629715,
        0.034487999975681305
      ],
      "type": "VEC2"
    },
    {
      "bufferView": 0,
      "byteOffset": 33600,
      "componentType": 5125,
      "count": 55944,
      "type": "SCALAR"
    },
    {
      "bufferView": 2,
      "byteOffset": 269088,
      "componentType": 5126,
      "count": 513,
      "max": [
        4.576667785644531,
        0.8990870118141174,
        11.717891693115234
      ],
      "min": [
        2.8436429500579834,
        -0.8840810060501099,
        10.768961906433105
      ],
      "type": "VEC3"
    },
    {
      "bufferView": 2,
      "byteOffset": 275244,
      "componentType": 5126,
      "count": 513,
      "max": [
        0.9987282156944275,
        0.9947681427001953,
        0.9994320273399353
      ],
      "min": [
        -0.9972542524337769,
        -0.9936655163764954,
        -0.7227500081062317
      ],
      "type": "VEC3"
    },
    {
      "bufferView": 1,
      "byteOffset": 89696,
      "componentType": 5126,
      "count": 513,
      "max": [
        0.352088987827301,
        0.7345150113105774
      ],
      "min": [
        0.29324600100517273,
        0.6869300007820129
      ],
      "type": "VEC2"
    },
    {
      "bufferView": 0,
      "byteOffset": 257376,
      "componentType": 5125,
      "count": 2880,
      "type": "SCALAR"
    },
    {
      "bufferView": 2,
      "byteOffset": 281400,
      "componentType": 5126,
      "count": 9993,
      "max": [
        12.377678871154785,
        7.340074062347412,
        11.211252212524414
      ],
      "min": [
        -6.208393096923828,
        -7.340074062347412,
        0.14781999588012695
      ],
      "type": "VEC3"
    },
    {
      "bufferView": 2,
      "byteOffset": 401316,
      "componentType": 5126,
      "count": 9993,
      "max": [
        0.9998633861541748,
        0.9999997615814209,
        0.9999282360076904
      ],
      "min": [
        -0.9969301223754883,
        -0.9999997615814209,
        -0.9993706345558167
      ],
      "type": "VEC3"
    },
    {
      "bufferView": 1,
      "byteOffset": 93800,
      "componentType": 5126,
      "count": 9993,
      "max": [
        0.9953479766845703,
        0.9805650115013123
      ],
      "min": [
        0.4834510087966919,
        0.125109001994133
      ],
      "type": "VEC2"
    },
    {
      "bufferView": 0,
      "byteOffset": 268896,
      "componentType": 5125,
      "count": 57120,
      "type": "SCALAR"
    },
    {
      "bufferView": 2,
      "byteOffset": 521232,
      "componentType": 5126,
      "count": 5399,
      "max": [
        12.615898132324219,
        3.0555830001831055,
        1.7161370515823364
      ],
      "min": [
        10.887720108032227,
        -3.825622081756592,
        0.08064500242471695
      ],
      "type": "VEC3"
    },
    {
      "bufferView": 2,
      "byteOffset": 586020,
      "componentType": 5126,
      "count": 5399,
      "max": [
        0.9995720982551575,
        0.9995812177658081,
        0.9992215037345886
      ],
      "min": [
        -0.99924635887146,
        -0.9995683431625366,
        -0.9998862147331238
      ],
      "type": "VEC3"
    },
    {
      "bufferView": 1,
      "byteOffset": 173744,
      "componentType": 5126,
      "count": 5399,
      "max": [
        0.7134649753570557,
        0.98021399974823
      ],
      "min": [
        0.05826599895954132,
        0.5306820273399353
      ],
      "type": "VEC2"
    },
    {
      "bufferView": 0,
      "byteOffset": 497376,
      "componentType": 5125,
      "count": 28704,
      "type": "SCALAR"
    }
  ],
  "asset": {
    "extras": {
      "author": "jmcgregor (https://sketchfab.com/jmcgregor)",
      "license": "CC-BY-4.0 (http://creativecommons.org/licenses/by/4.0/)",
      "source": "https://sketchfab.com/3d-models/baseball-hat-028-d9edc7c821f44c65a4f68e2509f04e6d",
      "title": "Baseball Hat 028"
    },
    "generator": "Sketchfab-12.68.0",
    "version": "2.0"
  },
  "bufferViews": [
    {
      "buffer": 0,
      "byteLength": 612192,
      "name": "floatBufferViews",
      "target": 34963
    },
    {
      "buffer": 0,
      "byteLength": 216936,
      "byteOffset": 612192,
      "byteStride": 8,
      "name": "floatBufferViews",
      "target": 34962
    },
    {
      "buffer": 0,
      "byteLength": 650808,
      "byteOffset": 829128,
      "byteStride": 12,
      "name": "floatBufferViews",
      "target": 34962
    }
  ],
  "buffers": [
    {
      "byteLength": 1479936,
      "uri": "scene.bin"
    }
  ],
  "materials": [
    {
      "doubleSided": true,
      "name": "baseball_hat_028__Mat",
      "pbrMetallicRoughness": {
        "metallicFactor": 0.0,
        "roughnessFactor": 0.6
      }
    }
  ],
  "meshes": [
    {
      "name": "Object_0",
      "primitives": [
        {
          "attributes": {
            "NORMAL": 1,
            "POSITION": 0,
            "TEXCOORD_0": 2
          },
          "indices": 3,
          "material": 0,
          "mode": 4
        }
      ]
    },
    {
      "name": "Object_1",
      "primitives": [
        {
          "attributes": {
            "NORMAL": 5,
            "POSITION": 4,
            "TEXCOORD_0": 6
          },
          "indices": 7,
          "material": 0,
          "mode": 4
        }
      ]
    },
    {
      "name": "Object_2",
      "primitives": [
        {
          "attributes": {
            "NORMAL": 9,
            "POSITION": 8,
            "TEXCOORD_0": 10
          },
          "indices": 11,
          "material": 0,
          "mode": 4
        }
      ]
    },
    {
      "name": "Object_3",
      "primitives": [
        {
          "attributes": {
            "NORMAL": 13,
            "POSITION": 12,
            "TEXCOORD_0": 14
          },
          "indices": 15,
          "material": 0,
          "mode": 4
        }
      ]
    },
    {
      "name": "Object_4",
      "primitives": [
        {
          "attributes": {
            "NORMAL": 17,
            "POSITION": 16,
            "TEXCOORD_0": 18
          },
          "indices": 19,
          "material": 0,
          "mode": 4
        }
      ]
    }
  ],
  "nodes": [
    {
      "children": [
        1
      ],
      "matrix": [
        1.0,
        0.0,
        0.0,
        0.0,
        0.0,
        2.220446049250313e-16,
        -1.0,
        0.0,
        0.0,
        1.0,
        2.220446049250313e-16,
        0.0,
        0.0,
        0.0,
        0.0,
        1.0
      ],
      "name": "Sketchfab_model"
    },
    {
      "children": [
        2,
        3,
        4,
        5,
        6
      ],
      "name": "baseball_hat_028.obj.cleaner.materialmerger.gles"
    },
    {
      "mesh": 0,
      "name": "Object_2"
    },
    {
      "mesh": 1,
      "name": "Object_3"
    },
    {
      "mesh": 2,
      "name": "Object_4"
    },
    {
      "mesh": 3,
      "name": "Object_5"
    },
    {
      "mesh": 4,
      "name": "Object_6"
    }
  ],
  "scene": 0,
  "scenes": [
    {
      "name": "Sketchfab_Scene",
      "nodes": [
        0
      ]
    }
  ]
}
